Simulation
nRows=20
nColumns=15
endheader
time  TH_x TH_y TH_z SC_y  SC_z  SC_x  AC_y  AC_z  AC_x  GH_y  GH_z  GH_yy  EL_x  PS_y
8.6175  0.000000  0.000000  0.000000  -37.75669561399675  -0.6812273628028693  -8.06717058788566  47.8371778217178  11.465837448906747  5.92342029962239  -0.08694560521640589  3.8568245678519846  11.931585238888303  20.5781476177123  120.000000
8.67495  0.000000  0.000000  0.000000  -37.45021133904652  -0.6890331921512896  -8.965096342468756  47.23826491491272  11.754843419281444  6.104560756936474  8.756949566166265  4.559137092255069  3.1417188812708714  20.510311519996392  120.000000
8.7324  0.000000  0.000000  0.000000  -37.08039529242208  -0.7502876709323401  -9.928061006505922  46.730467673674966  12.04159543310221  6.368514423819262  19.01842159420849  5.601178779561702  -6.922689952188641  20.62033008031813  120.000000
8.78985  0.000000  0.000000  0.000000  -36.68436725412408  -0.8580109090345982  -10.91553578763274  46.32591464972456  12.33439105242673  6.716556278030418  28.98188081445271  7.131184934309074  -16.596390108279444  20.88739260021785  120.000000
8.8473  0.000000  0.000000  0.000000  -36.30541380712203  -0.9898310612442807  -11.89723426946159  46.02004749517699  12.641231706647087  7.134867437211834  37.50572093422039  9.247220156151416  -24.819828776817285  21.24690439202185  120.000000
8.90475  0.000000  0.000000  0.000000  -35.97972819608184  -1.119627717955052  -12.855674727499219  45.80209001870427  12.964340354459141  7.598686134474858  44.29529341460763  11.984432240485887  -31.384168646322603  21.6223867434546  120.000000
8.9622  0.000000  0.000000  0.000000  -35.726020677849824  -1.2234139792320387  -13.780700951249997  45.65948716560625  13.298395273252694  8.079866251154572  49.53826437001981  15.327503970126438  -36.5402161069748  21.95196943482196  120.000000
9.01965  0.000000  0.000000  0.000000  -35.54740894744712  -1.286990610465186  -14.661091787456893  45.57834114998786  13.632037470649543  8.55369869947781  53.55008888018651  19.226331332944266  -40.62855943600154  22.201116264956287  120.000000
9.0771  0.000000  0.000000  0.000000  -35.4397605398679  -1.3059761640279104  -15.47951293994765  45.5457261658665  13.950041623249755  9.002022235924255  56.624757884759596  23.61020632617805  -43.92832904731871  22.360503897340575  120.000000
9.13455  0.000000  0.000000  0.000000  -35.39616339742926  -1.2828087813939786  -16.210490198344115  45.55524791620228  14.240581483536916  9.40837143039116  58.99496004828155  28.40189553210722  -46.62556809196618  22.433714970086314  120.000000
9.192  0.000000  0.000000  0.000000  -35.41226256227107  -1.2229933860909254  -16.82045339314  45.61065109318159  14.501661191474048  9.7512689775116  60.83242636786889  33.529198740827695  -48.82890154960446  22.424093215850686  120.000000
9.24945  0.000000  0.000000  0.000000  -35.48204036357087  -1.1244720552082994  -17.27071111937113  45.725947379837734  14.73968896664117  10.0022023038883  62.26913218736095  38.92547131611292  -50.60079413496371  22.32748431149533  120.000000
9.3069  0.000000  0.000000  0.000000  -35.59650706433777  -0.980803244662077  -17.521403116435312  45.91787605450796  14.962310394688316  10.130491629020568  63.41174202297548  44.52454301776536  -51.981075539502854  22.132736485919356  120.000000
9.36435  0.000000  0.000000  0.000000  -35.742428635128576  -0.7870844659211951  -17.53661017682084  46.199889794293824  15.171481209152724  10.108273537043967  64.349257939575  50.25360940269508  -53.001676915513976  21.828783895593592  120.000000
9.421800000000001  0.000000  0.000000  0.000000  -35.90577198904945  -0.5440504148082855  -17.29067164791088  46.57614687544829  15.358467678413184  9.916097265749489  65.15272874916793  56.02678745866241  -53.694166802723124  21.416920859942593  120.000000
9.47925  0.000000  0.000000  0.000000  -36.080711469342454  -0.2621192713521128  -16.7707484296482  47.03227972543805  15.503777475416179  9.550703323644115  65.86983123590024  61.74329531372241  -54.09329225677594  20.919303997131124  120.000000
9.5367  0.000000  0.000000  0.000000  -36.272767713010154  0.038524492470538955  -15.978092499151064  47.53182480741291  15.582454969953371  9.030481097022191  66.5216346831626  67.29014630489364  -54.23871734982672  20.376078958079543  120.000000
9.59415  0.000000  0.000000  0.000000  -36.49540728784855  0.3297780075668156  -14.931231393127595  48.02329126120474  15.571298602173842  8.393071568430347  67.10767001139193  72.54599147415801  -54.1756460281081  19.834083986966128  120.000000
9.6516  0.000000  0.000000  0.000000  -36.75510985376605  0.5838688764030379  -13.669618402899289  48.45763716374353  15.456186203178095  7.683512730463719  67.61721046718695  77.38481617125362  -53.9530437548316  19.335395704695674  120.000000
9.70905  0.000000  0.000000  0.000000  -37.04153092149683  0.7840299736612911  -12.253335183347378  48.804310909387056  15.235554986857395  6.941239515949802  68.04033799609509  81.68183128116304  -53.62006568299534  18.911240556716866  120.000000
